<!-- icon666.com - MILLIONS vector ICONS FREE --><svg id="Layer_1" enable-background="new 0 0 512.002 512.002" viewBox="0 0 512.002 512.002" xmlns="http://www.w3.org/2000/svg"><path d="m492.001 512.002c-11.046 0-20-8.954-20-20v-406.86l-199.446 294.183c-3.722 5.489-9.922 8.777-16.554 8.777s-12.833-3.288-16.554-8.777l-199.446-294.183v406.859c0 11.046-8.954 20-20 20s-20-8.954-20-20v-472c0-8.785 5.732-16.541 14.13-19.119 8.397-2.579 17.495.625 22.424 7.896l219.446 323.683 219.446-323.682c4.93-7.271 14.027-10.474 22.424-7.896s14.13 10.334 14.13 19.119v472c0 11.046-8.954 20-20 20z"></path></svg>